<svg xmlns="http://www.w3.org/2000/svg" xmlns:xlink="http://www.w3.org/1999/xlink" width="" height="" viewBox="0 0 24 24"><defs><style>.a{fill:#fff;stroke:#707070;}.b{clip-path:url(#a);}</style><clipPath id="a"><rect class="a" width="24" height="24" transform="translate(0 -13)"/></clipPath></defs><g class="b" transform="translate(0 13)"><g transform="translate(0.839 -7.378)"><path d="M.358.351A1.239,1.239,0,0,1,1.949.235l.137.116L11,9.1,19.914.351A1.239,1.239,0,0,1,21.5.235l.137.116a1.184,1.184,0,0,1,.118,1.562l-.118.135-9.778,9.6a1.239,1.239,0,0,1-1.591.116l-.137-.116L.358,2.049A1.185,1.185,0,0,1,.358.351Z" transform="translate(0.161 0.378)"/></g></g></svg>